<svg enable-background="new 0 0 495 495" viewBox="0 50 495 395" xmlns="http://www.w3.org/2000/svg">

<path d="m495 103.513v-8.013c0-21.78-17.72-39.5-39.5-39.5h-416c-21.78 0-39.5 17.72-39.5 39.5v303.997.008c.003 21.778 17.722 39.495 39.5 39.495h416c21.78 0 39.5-17.72 39.5-39.5v-295.979c0-.003 0-.005 0-.008zm-455.5-32.513h416c13.509 0 24.5 10.99 24.5 24.5v4.883c-35.121 34.963-92.85 92.464-140.721 140.289l-75.162-75.162c-9.162-9.162-24.071-9.162-33.233 0l-215.884 215.883v-285.893c0-13.51 10.991-24.5 24.5-24.5zm416 353h-416c-12.519 0-22.868-9.439-24.319-21.574l226.309-226.309c3.314-3.314 8.706-3.314 12.021 0l75.158 75.158c-39.409 39.395-69.856 69.974-71.169 71.725-2.485 3.313-1.814 8.015 1.5 10.5 1.349 1.012 2.928 1.5 4.494 1.5 2.187 0 4.349-.953 5.822-2.764 5.759-6.466 143.646-143.928 210.684-210.685v277.949c0 13.51-10.991 24.5-24.5 24.5z"/>

<path d="m103.5 199c21.78 0 39.5-17.72 39.5-39.5s-17.72-39.5-39.5-39.5-39.5 17.72-39.5 39.5 17.72 39.5 39.5 39.5zm0-64c13.509 0 24.5 10.99 24.5 24.5s-10.991 24.5-24.5 24.5-24.5-10.99-24.5-24.5 10.991-24.5 24.5-24.5z"/>

</svg>